# xmcd
#
# Track frame offsets:
#	150
#	25530
#	60617
#	78097
#	101020
#	139435
#	168110
#	183606
#	201684
#	216804
#	234279
#	247203
#	273198
#	286166
#
# Disc length: 4208 seconds
# Revision: 1
# Processed by: cddbd v1.5.2PL0 Copyright (c) Steve Scherf et al.
# Submitted via: dBpowerAMP V12.0
#
DISCID=c8106e0e
DTITLE=Little Milton - Stax Profiles
DYEAR=2006
DGENRE=Blues
TTITLE0=Let Me Down Easy [Live]
TTITLE1=I Can't Quit You Baby [Live]
TTITLE2=That's What Love Will Make You Do
TTITLE3=Walkin' the Back Streets and Crying
TTITLE4=Blind Man [Live]
TTITLE5=The Thrill Is Gone
TTITLE6=If That Ain't a Reason (For Your Woman to Leave You)
TTITLE7=Behind Closed Doors
TTITLE8=If You Talk in Your Sleep
TTITLE9=Tin Pan Alley
TTITLE10=I'm Living off the Love You Give
TTITLE11=Blue Monday
TTITLE12=Lovin' Stick
TTITLE13=Little Bluebird
EXTD=
EXTT0=
EXTT1=
EXTT2=
EXTT3=
EXTT4=
EXTT5=
EXTT6=
EXTT7=
EXTT8=
EXTT9=
EXTT10=
EXTT11=
EXTT12=
EXTT13=
PLAYORDER=
